<svg width="50" height="50" viewBox="0 0 50 50" fill="none" xmlns="http://www.w3.org/2000/svg">
<g clip-path="url(#clip0_97_6)">
<rect width="50" height="50" fill="white"/>
<path d="M19.0586 35.1875C18.1289 35.1875 17.2812 35.0078 16.5156 34.6484C15.75 34.2891 15.1406 33.7578 14.6875 33.0547C14.2422 32.3438 14.0195 31.4727 14.0195 30.4414V25.2734H18.0977V30.1953C18.0977 30.5547 18.168 30.8438 18.3086 31.0625C18.457 31.2812 18.6914 31.3906 19.0117 31.3906C19.6289 31.3906 19.9375 31.0117 19.9375 30.2539V14.375H24.0977V29.8438C24.0977 30.9375 23.8828 31.8867 23.4531 32.6914C23.0234 33.4883 22.4297 34.1055 21.6719 34.543C20.9141 34.9727 20.043 35.1875 19.0586 35.1875ZM29.9453 35.1875C27 35.1875 25.5273 33.0781 25.5273 28.8594V19.9648C25.5273 16.1133 27.2148 14.1875 30.5898 14.1875C31.9805 14.1875 33.0469 14.4688 33.7891 15.0312C34.5312 15.5859 35.043 16.3984 35.3242 17.4688C35.6055 18.5391 35.7461 19.8438 35.7461 21.3828H31.7148V19.5547C31.7148 19.1094 31.6523 18.7383 31.5273 18.4414C31.4102 18.1367 31.1602 17.9844 30.7773 17.9844C30.3008 17.9844 29.9844 18.1445 29.8281 18.4648C29.6797 18.7852 29.6055 19.1367 29.6055 19.5195V29.5156C29.6055 30.0703 29.6758 30.5234 29.8164 30.875C29.9648 31.2188 30.25 31.3906 30.6719 31.3906C31.1094 31.3906 31.3984 31.2188 31.5391 30.875C31.6875 30.5234 31.7617 30.0625 31.7617 29.4922V26.5508H30.6602V22.9883H35.6992V35H34.0469L33.3438 33.2656C32.625 34.5469 31.4922 35.1875 29.9453 35.1875Z" fill="black"/>
</g>
<defs>
<clipPath id="clip0_97_6">
<rect width="50" height="50" fill="white"/>
</clipPath>
</defs>
</svg>
